<svg width="430" height="165" viewBox="0 0 430 165" fill="none" xmlns="http://www.w3.org/2000/svg">
<path d="M0 36.8C0 21.035 0 13.1525 4.1969 7.74186C5.22519 6.4162 6.4162 5.22519 7.74186 4.1969C13.1525 0 21.035 0 36.8 0H392.48C408.245 0 416.127 0 421.538 4.1969C422.863 5.22519 424.054 6.4162 425.083 7.74186C429.28 13.1525 429.28 21.035 429.28 36.8V128.2C429.28 143.965 429.28 151.848 425.083 157.258C424.054 158.584 422.863 159.775 421.538 160.803C416.127 165 408.245 165 392.48 165H36.8C21.035 165 13.1525 165 7.74186 160.803C6.4162 159.775 5.22519 158.584 4.1969 157.258C0 151.848 0 143.965 0 128.2V36.8Z" fill="#010004"/>
</svg>
